<?xml version="1.0" encoding="iso-8859-1"?><svg xmlns="http://www.w3.org/2000/svg" viewBox="0 0 420 420"><path d="M407,96c-8-9-20-14-33-14h-66v-0c0-10-4-20-11-26c-7-7-16-11-26-11h-120 c-10,0-20,4-26,11c-7,7-11,16-11,26v0h-66c-13,0-25,5-33,14c-8,8-14,20-14,33v199 C0,342,5,354,14,362c8,8,20,14,33,14h326c13,0,25-5,33-14c8-8,14-20,14-33V130 C421,116,416,105,407,96z M400,329h-0c0,7-3,14-8,18s-11,8-18,8H47 c-7,0-14-3-18-8c-5-5-8-11-8-18V130c0-7,3-14,8-18s11-8,18-8h77 c6,0,11-5,11-11V81c0-4,2-8,4-11s7-4,11-4h120c4,0,8,2,11,4c3,3,4,7,4,11 v12c0,6,5,11,11,11H374c7,0,14,3,18,8s8,11,8,18V329z"/><circle cx="353" cy="145" r="20"/><circle cx="210" cy="225" r="85" fill-opacity="0" stroke-width="20" stroke="black"/></svg>
